<svg width="360" height="234" viewBox="0 0 360 234" fill="none" xmlns="http://www.w3.org/2000/svg">
<path d="M183.568 29.8252C107.61 10.3628 104.06 2.20281 41.8847 29.8252C8.72442 29.8252 -21.922 -9.59258 -43.0213 2.20281C-64.1207 13.9982 2.3882 83.2731 -55.4058 91.3824C-113.2 99.4917 -97.6045 147.042 -43.0213 207.862C11.5619 268.682 56.6144 205.989 87.0656 193.486C128.516 176.467 195.412 185.588 291.416 199.702C381.542 212.953 336.309 168.052 404.194 147.042C472.079 126.031 472.996 99.8603 361.078 29.8252C249.159 -40.2099 278.515 54.1532 183.568 29.8252Z" fill="#2BA84A"/>
<path d="M56.6939 135C54.4219 135 52.6459 134.408 51.3659 133.224C50.1179 132.008 49.4939 130.328 49.4939 128.184V108.072C49.4939 105.992 50.1019 104.36 51.3179 103.176C52.5339 101.992 54.2299 101.4 56.4059 101.4H71.3339C72.1659 101.4 72.8059 101.592 73.2539 101.976C73.7019 102.328 73.9259 102.856 73.9259 103.56C73.9259 104.232 73.7019 104.76 73.2539 105.144C72.8059 105.496 72.1659 105.672 71.3339 105.672H57.1739C56.4699 105.672 55.9259 105.896 55.5419 106.344C55.1579 106.792 54.9659 107.4 54.9659 108.168V115.704H67.6859C68.5179 115.704 69.1579 115.896 69.6059 116.28C70.0539 116.632 70.2779 117.16 70.2779 117.864C70.2779 118.536 70.0539 119.064 69.6059 119.448C69.1579 119.8 68.5179 119.976 67.6859 119.976H54.9659V128.232C54.9659 129 55.1579 129.608 55.5419 130.056C55.9259 130.504 56.4699 130.728 57.1739 130.728H72.3899C73.2219 130.728 73.8619 130.92 74.3099 131.304C74.7579 131.656 74.9819 132.184 74.9819 132.888C74.9819 133.56 74.7579 134.088 74.3099 134.472C73.8619 134.824 73.2219 135 72.3899 135H56.6939ZM83.5525 135.48C82.7205 135.48 82.0645 135.256 81.5845 134.808C81.1045 134.36 80.8645 133.736 80.8645 132.936V101.112C80.8645 100.312 81.1045 99.688 81.5845 99.24C82.0645 98.792 82.7205 98.568 83.5525 98.568C84.3845 98.568 85.0405 98.792 85.5205 99.24C86.0005 99.688 86.2405 100.312 86.2405 101.112V132.936C86.2405 133.704 85.9845 134.328 85.4725 134.808C84.9925 135.256 84.3525 135.48 83.5525 135.48ZM104.421 135.48C101.893 135.48 99.6533 135 97.7013 134.04C95.7813 133.048 94.2773 131.64 93.1893 129.816C92.1333 127.96 91.6053 125.784 91.6053 123.288C91.6053 120.824 92.1173 118.664 93.1413 116.808C94.1973 114.952 95.7013 113.528 97.6533 112.536C99.6053 111.512 101.909 111 104.565 111C106.645 111 108.405 111.352 109.845 112.056C111.285 112.76 112.597 113.784 113.781 115.128L113.829 101.112C113.829 100.312 114.069 99.688 114.549 99.24C115.029 98.792 115.685 98.568 116.517 98.568C117.349 98.568 118.005 98.792 118.485 99.24C118.965 99.688 119.205 100.312 119.205 101.112V132.936C119.205 133.736 118.965 134.36 118.485 134.808C118.005 135.256 117.349 135.48 116.517 135.48C115.717 135.48 115.061 135.256 114.549 134.808C114.069 134.328 113.829 133.704 113.829 132.936V131.256C111.621 134.072 108.485 135.48 104.421 135.48ZM105.189 131.16C107.877 131.16 109.989 130.456 111.525 129.048C113.061 127.64 113.829 125.704 113.829 123.24C113.829 120.776 113.029 118.84 111.429 117.432C109.861 116.024 107.781 115.32 105.189 115.32C102.629 115.32 100.629 116.04 99.1893 117.48C97.7493 118.888 97.0293 120.824 97.0293 123.288C97.0293 125.816 97.7493 127.768 99.1893 129.144C100.629 130.488 102.629 131.16 105.189 131.16ZM137.014 135.48C134.262 135.48 131.862 135 129.814 134.04C127.798 133.048 126.246 131.64 125.158 129.816C124.102 127.992 123.574 125.832 123.574 123.336C123.574 119.464 124.726 116.44 127.03 114.264C129.334 112.088 132.534 111 136.63 111C139.158 111 141.398 111.4 143.35 112.2C145.302 113 146.822 114.12 147.91 115.56C148.998 116.968 149.542 118.584 149.542 120.408C149.542 121.88 149.094 123.016 148.198 123.816C147.302 124.616 146.038 125.016 144.406 125.016H128.854C128.854 127 129.558 128.536 130.966 129.624C132.374 130.712 134.39 131.256 137.014 131.256C138.518 131.256 139.846 131.096 140.998 130.776C142.15 130.456 143.222 129.944 144.214 129.24C145.142 128.632 145.846 128.328 146.326 128.328C146.742 128.328 147.174 128.552 147.622 129C148.134 129.48 148.39 130.008 148.39 130.584C148.39 131.192 148.118 131.704 147.574 132.12C144.886 134.36 141.366 135.48 137.014 135.48ZM142.774 121.128C143.318 121.128 143.718 121.016 143.974 120.792C144.23 120.568 144.358 120.184 144.358 119.64C144.358 118.328 143.654 117.272 142.246 116.472C140.838 115.64 138.966 115.224 136.63 115.224C134.262 115.224 132.39 115.768 131.014 116.856C129.638 117.912 128.95 119.336 128.95 121.128H142.774ZM165.198 135.48C162.574 135.48 160.318 135.08 158.43 134.28C156.574 133.448 155.07 132.328 153.918 130.92C153.534 130.376 153.342 129.864 153.342 129.384C153.342 128.616 153.71 128.008 154.446 127.56C154.894 127.304 155.31 127.176 155.694 127.176C156.302 127.176 156.91 127.48 157.518 128.088C158.606 129.176 159.71 129.976 160.83 130.488C161.982 130.968 163.358 131.208 164.958 131.208C166.43 131.208 167.63 131 168.558 130.584C169.486 130.168 169.95 129.608 169.95 128.904C169.95 128.36 169.774 127.912 169.422 127.56C169.102 127.176 168.526 126.808 167.694 126.456C166.862 126.104 165.566 125.64 163.806 125.064C160.414 123.976 158.014 122.872 156.606 121.752C155.23 120.6 154.542 119.144 154.542 117.384C154.542 115.4 155.39 113.848 157.086 112.728C158.782 111.576 161.086 111 163.998 111C166.206 111 168.222 111.352 170.046 112.056C171.87 112.76 173.214 113.688 174.078 114.84C174.43 115.288 174.606 115.768 174.606 116.28C174.606 116.92 174.27 117.464 173.598 117.912C173.182 118.2 172.702 118.344 172.158 118.344C171.422 118.344 170.686 118.008 169.95 117.336C168.51 115.96 166.51 115.272 163.95 115.272C161.294 115.272 159.966 115.976 159.966 117.384C159.966 117.928 160.142 118.376 160.494 118.728C160.846 119.08 161.454 119.432 162.318 119.784C163.214 120.104 164.654 120.584 166.638 121.224C168.814 121.896 170.526 122.584 171.774 123.288C173.022 123.992 173.918 124.792 174.462 125.688C175.006 126.552 175.278 127.624 175.278 128.904C175.278 130.888 174.382 132.488 172.59 133.704C170.798 134.888 168.334 135.48 165.198 135.48ZM198.132 129.288C198.612 129.672 198.852 130.12 198.852 130.632C198.852 131.176 198.644 131.72 198.228 132.264C197.556 133.256 196.596 134.04 195.348 134.616C194.1 135.192 192.724 135.48 191.22 135.48C188.82 135.48 186.932 134.808 185.556 133.464C184.18 132.12 183.492 130.28 183.492 127.944V115.752H181.332C180.468 115.752 179.78 115.56 179.268 115.176C178.788 114.792 178.548 114.28 178.548 113.64C178.548 112.968 178.788 112.44 179.268 112.056C179.78 111.672 180.468 111.48 181.332 111.48H183.492V103.896C183.492 103.096 183.732 102.472 184.212 102.024C184.692 101.576 185.348 101.352 186.18 101.352C187.012 101.352 187.668 101.576 188.148 102.024C188.628 102.472 188.868 103.096 188.868 103.896V111.48H194.1C194.932 111.48 195.588 111.672 196.068 112.056C196.58 112.44 196.836 112.968 196.836 113.64C196.836 114.28 196.596 114.792 196.116 115.176C195.636 115.56 194.964 115.752 194.1 115.752H188.868V128.376C188.868 129.24 189.108 129.928 189.588 130.44C190.068 130.92 190.74 131.16 191.604 131.16C192.788 131.16 193.844 130.696 194.772 129.768C195.508 129.096 196.18 128.76 196.788 128.76C197.3 128.76 197.748 128.936 198.132 129.288ZM219.898 135.48C216.378 135.48 213.306 134.792 210.682 133.416C208.09 132.008 206.09 130.008 204.682 127.416C203.306 124.824 202.618 121.768 202.618 118.248C202.618 114.728 203.306 111.672 204.682 109.08C206.09 106.456 208.09 104.44 210.682 103.032C213.274 101.624 216.33 100.92 219.85 100.92C222.73 100.92 225.402 101.416 227.866 102.408C230.33 103.4 232.186 104.744 233.434 106.44C233.786 106.952 233.962 107.416 233.962 107.832C233.962 108.536 233.594 109.16 232.858 109.704C232.442 109.96 232.01 110.088 231.562 110.088C231.146 110.088 230.73 109.992 230.314 109.8C229.93 109.608 229.594 109.352 229.306 109.032C228.25 107.752 226.938 106.808 225.37 106.2C223.834 105.592 221.994 105.288 219.85 105.288C216.17 105.288 213.29 106.44 211.21 108.744C209.162 111.016 208.138 114.184 208.138 118.248C208.138 122.248 209.178 125.4 211.258 127.704C213.338 129.976 216.218 131.112 219.898 131.112C224.25 131.112 227.594 129.864 229.93 127.368C230.698 126.6 231.482 126.216 232.282 126.216C232.794 126.216 233.258 126.376 233.674 126.696C234.314 127.24 234.634 127.832 234.634 128.472C234.634 129.016 234.442 129.528 234.058 130.008C232.682 131.704 230.746 133.048 228.25 134.04C225.754 135 222.97 135.48 219.898 135.48ZM248.029 135.48C244.989 135.48 242.557 134.76 240.733 133.32C238.909 131.88 237.997 129.96 237.997 127.56C237.997 125.192 238.957 123.304 240.877 121.896C242.829 120.488 245.453 119.784 248.749 119.784C251.949 119.784 254.445 120.52 256.237 121.992V120.168C256.237 118.568 255.725 117.352 254.701 116.52C253.709 115.656 252.237 115.224 250.285 115.224C247.533 115.224 245.165 115.832 243.181 117.048C242.509 117.432 241.901 117.624 241.357 117.624C240.781 117.624 240.253 117.368 239.773 116.856C239.453 116.504 239.293 116.088 239.293 115.608C239.293 114.84 239.629 114.232 240.301 113.784C241.453 112.92 242.909 112.248 244.669 111.768C246.429 111.256 248.269 111 250.189 111C253.805 111 256.637 111.816 258.685 113.448C260.733 115.08 261.757 117.336 261.757 120.216V133.08C261.757 133.816 261.517 134.408 261.037 134.856C260.557 135.272 259.901 135.48 259.069 135.48C258.237 135.48 257.581 135.272 257.101 134.856C256.653 134.44 256.429 133.864 256.429 133.128V132.216C254.541 134.392 251.741 135.48 248.029 135.48ZM249.181 131.544C251.357 131.544 253.085 131.192 254.365 130.488C255.645 129.752 256.285 128.76 256.285 127.512C256.285 126.296 255.661 125.336 254.413 124.632C253.165 123.928 251.453 123.576 249.277 123.576C247.389 123.576 245.917 123.928 244.861 124.632C243.837 125.336 243.325 126.312 243.325 127.56C243.325 128.84 243.821 129.832 244.813 130.536C245.837 131.208 247.293 131.544 249.181 131.544ZM269.389 135.48C268.557 135.48 267.901 135.256 267.421 134.808C266.941 134.36 266.701 133.736 266.701 132.936V113.544C266.701 112.744 266.925 112.12 267.373 111.672C267.853 111.224 268.493 111 269.293 111C270.125 111 270.765 111.224 271.213 111.672C271.693 112.12 271.933 112.744 271.933 113.544V115.56C274.013 112.84 276.749 111.48 280.141 111.48H281.245C282.109 111.48 282.781 111.672 283.261 112.056C283.773 112.44 284.029 112.968 284.029 113.64C284.029 114.344 283.773 114.888 283.261 115.272C282.781 115.624 282.109 115.8 281.245 115.8H279.709C277.373 115.8 275.517 116.52 274.141 117.96C272.765 119.368 272.077 121.304 272.077 123.768V132.936C272.077 133.704 271.821 134.328 271.309 134.808C270.829 135.256 270.189 135.48 269.389 135.48ZM298.17 135.48C295.418 135.48 293.018 135 290.97 134.04C288.954 133.048 287.402 131.64 286.314 129.816C285.258 127.992 284.73 125.832 284.73 123.336C284.73 119.464 285.882 116.44 288.186 114.264C290.49 112.088 293.69 111 297.786 111C300.314 111 302.554 111.4 304.506 112.2C306.458 113 307.978 114.12 309.066 115.56C310.154 116.968 310.698 118.584 310.698 120.408C310.698 121.88 310.25 123.016 309.354 123.816C308.458 124.616 307.194 125.016 305.562 125.016H290.01C290.01 127 290.714 128.536 292.122 129.624C293.53 130.712 295.546 131.256 298.17 131.256C299.674 131.256 301.002 131.096 302.154 130.776C303.306 130.456 304.378 129.944 305.37 129.24C306.298 128.632 307.002 128.328 307.482 128.328C307.898 128.328 308.33 128.552 308.778 129C309.29 129.48 309.546 130.008 309.546 130.584C309.546 131.192 309.274 131.704 308.73 132.12C306.042 134.36 302.522 135.48 298.17 135.48ZM303.93 121.128C304.474 121.128 304.874 121.016 305.13 120.792C305.386 120.568 305.514 120.184 305.514 119.64C305.514 118.328 304.81 117.272 303.402 116.472C301.994 115.64 300.122 115.224 297.786 115.224C295.418 115.224 293.546 115.768 292.17 116.856C290.794 117.912 290.106 119.336 290.106 121.128H303.93Z" fill="white"/>
</svg>
